<?xml version="1.0" encoding="utf-8"?>
<!-- Svg Vector Icons : http://www.onlinewebfonts.com/icon -->
<!DOCTYPE svg PUBLIC "-//W3C//DTD SVG 1.1//EN" "http://www.w3.org/Graphics/SVG/1.1/DTD/svg11.dtd">
<svg version="1.1" xmlns="http://www.w3.org/2000/svg" xmlns:xlink="http://www.w3.org/1999/xlink" x="0px" y="0px" viewBox="0 0 256 256" enable-background="new 0 0 256 256" xml:space="preserve">
<metadata> Svg Vector Icons : http://www.onlinewebfonts.com/icon </metadata>
<g><g><path fill="#000000" d="M233,23c-8.6-8.6-19.1-13-31.3-13H54.3C42.1,10,31.6,14.3,23,23c-8.7,8.6-13,19.1-13,31.3v147.5c0,12.2,4.3,22.6,13,31.3c8.7,8.7,19.1,13,31.3,13h147.5c12.2,0,22.6-4.3,31.3-13c8.6-8.7,13-19.1,13-31.3V54.2C246,42.1,241.7,31.6,233,23z M81.9,207.6H46.4V101h35.5V207.6z M78.7,81.2c-3.7,3.5-8.5,5.3-14.6,5.3h-0.1c-5.8,0-10.6-1.8-14.2-5.3c-3.6-3.5-5.5-7.9-5.5-13.1c0-5.3,1.9-9.7,5.6-13.2c3.7-3.5,8.6-5.2,14.5-5.2c5.9,0,10.7,1.7,14.3,5.2c3.6,3.5,5.4,7.9,5.5,13.2C84.2,73.3,82.4,77.7,78.7,81.2z M209.6,207.6h-35.5v-57c0-16.1-5.9-24.1-17.8-24.1c-4.5,0-8.3,1.3-11.4,3.8s-5.4,5.6-6.9,9.2c-0.7,1.9-1.1,4.7-1.1,8.6v59.6h-35.5c0.3-64.3,0.3-99.9,0-106.6h35.5V116c7.5-11.7,18.1-17.5,31.8-17.5c12.3,0,22.2,4,29.6,12.1c7.5,8.1,11.2,20,11.2,35.8V207.6L209.6,207.6z"/></g></g>
</svg>